<?xml version="1.0" encoding="UTF-8" standalone="no"?>
<!DOCTYPE svg PUBLIC "-//W3C//DTD SVG 1.1//EN" "http://www.w3.org/Graphics/SVG/1.1/DTD/svg11.dtd">
<svg version="1.1" xmlns="http://www.w3.org/2000/svg" xmlns:xlink="http://www.w3.org/1999/xlink" preserveAspectRatio="xMidYMid meet" viewBox="184.19622226297463 151.07518796992522 279.90904089492 239.59398496240553" width="275.91" height="235.59"><defs><path d="M411.73 226.01C411.73 266.82 378.6 299.95 337.79 299.95C296.99 299.95 263.86 266.82 263.86 226.01C263.86 185.2 296.99 152.08 337.79 152.08C378.6 152.08 411.73 185.2 411.73 226.01Z" id="b1zuORt4Ps"></path><path d="M329.02 295.94L344.06 295.94L344.06 387.67L329.02 387.67L329.02 295.94Z" id="c1zs6YWJUJ"></path><path d="M270.83 303.61L273.72 304.1L276.58 304.69L279.39 305.39L282.16 306.19L284.88 307.08L287.55 308.07L290.17 309.14L292.73 310.31L295.24 311.57L297.68 312.92L300.07 314.34L302.39 315.85L304.64 317.44L306.82 319.1L308.93 320.84L310.97 322.65L312.93 324.54L314.82 326.49L316.62 328.5L318.34 330.58L319.97 332.73L321.52 334.93L322.97 337.19L324.33 339.5L325.6 341.87L326.77 344.28L327.84 346.75L328.81 349.26L329.67 351.82L330.42 354.42L331.07 357.05L331.6 359.73L332.02 362.44L332.32 365.18L332.5 367.96L332.56 370.76L332.5 373.56L332.32 376.34L332.02 379.08L331.6 381.79L331.07 384.47L330.42 387.1L330.26 387.67L187.5 387.67L187.34 387.1L186.69 384.47L186.16 381.79L185.74 379.08L185.44 376.34L185.26 373.56L185.2 370.76L185.26 367.96L185.44 365.18L185.74 362.44L186.16 359.73L186.69 357.05L187.34 354.42L188.09 351.82L188.96 349.26L189.92 346.75L190.99 344.28L192.16 341.87L193.43 339.5L194.79 337.19L196.24 334.93L197.79 332.73L199.42 330.58L201.14 328.5L202.94 326.49L204.83 324.54L206.79 322.65L208.83 320.84L210.94 319.1L213.12 317.44L215.38 315.85L217.69 314.34L220.08 312.92L222.52 311.57L225.03 310.31L227.59 309.14L230.21 308.07L232.88 307.08L235.6 306.19L238.37 305.39L241.18 304.69L244.04 304.1L246.94 303.61L249.87 303.22L252.84 302.94L255.85 302.77L258.88 302.71L261.92 302.77L264.92 302.94L267.89 303.22L267.89 303.22L270.83 303.61Z" id="daa0tENTi"></path><path d="M435.92 304.59L461.11 387.67L410.73 387.67L360.35 387.67L385.54 304.59L410.73 221.5L435.92 304.59Z" id="d1B2NCLWC"></path></defs><g><g><use xlink:href="#b1zuORt4Ps" opacity="1" fill="#ffffff" fill-opacity="1"></use></g><g><use xlink:href="#c1zs6YWJUJ" opacity="1" fill="#ffffff" fill-opacity="1"></use></g><g><use xlink:href="#daa0tENTi" opacity="1" fill="#ffffff" fill-opacity="1"></use></g><g><use xlink:href="#d1B2NCLWC" opacity="1" fill="#ffffff" fill-opacity="1"></use></g></g></svg>